<svg fill="none" height="24" viewBox="0 0 24 24" width="24" xmlns="http://www.w3.org/2000/svg" xmlns:xlink="http://www.w3.org/1999/xlink"><linearGradient id="a" gradientUnits="userSpaceOnUse" x1="12" x2="12" y1="1" y2="23"><stop offset="0" stop-color="#ff4d00"/><stop offset="1" stop-color="#f20c0c"/></linearGradient><path d="m19 7h-.82l-1.7-4.68c-.1407-.3859-.3964-.71935-.7326-.95538-.3362-.23604-.7366-.3633-1.1474-.36462h-1.6c-.55 0-1 .45-1 1s.45 1 1 1h1.6l1.46 4h-4.81l-.36-1h.09c.55 0 1-.45 1-1s-.45-1-1-1h-2.98c-.55 0-1 .45-1 1s.45 1 1 1h.75l1.82 5h-.67c-.44-2.23-2.31-3.88-4.65-3.99-2.8-.14-5.25 2.19-5.25 4.99s2.2 5 5 5c2.46 0 4.45-1.69 4.9-4h4.2c.44 2.23 2.31 3.88 4.65 3.99 2.8.13 5.25-2.19 5.25-5 0-2.79-2.2-4.99-5-4.99zm-13 6h1.82c-.42 1.23-1.6 2.08-3.02 1.99-1.49-.09-2.73-1.35-2.8-2.85-.07-1.75 1.27-3.14 3-3.14 1.33 0 2.42.83 2.82 2h-1.82c-.55 0-1 .45-1 1s.45 1 1 1zm8.1-2h-1.4l-.73-2h3.03c-.44.58-.76 1.25-.9 2zm4.78 4c-1.54-.06-2.84-1.37-2.88-2.92-.02-.96.39-1.8 1.05-2.36l.62 1.7c.19.52.76.79 1.28.6s.79-.76.6-1.28l-.63-1.73.01-.01c.4009-.01367.8005.05405 1.1745.19908.374.14502.7148.36435 1.0017.64473.287.28039.5141.61599.6677.98659s.2305.7685.2261 1.1696c0 1.72-1.38 3.06-3.12 3zm-7.88 5h-4l6 3v-2h4l-6-3z" fill="url(#a)"/></svg>